<svg width="48" height="48" viewBox="0 0 48 48" fill="none" xmlns="http://www.w3.org/2000/svg">
<path fill-rule="evenodd" clip-rule="evenodd" d="M36.7604 12.3967C37.0799 12.0772 37.0799 11.5592 36.7604 11.2396C36.4408 10.9201 35.9228 10.9201 35.6033 11.2396L24 22.8429L12.3967 11.2396C12.0772 10.9201 11.5592 10.9201 11.2396 11.2396C10.9201 11.5592 10.9201 12.0772 11.2396 12.3967L22.8429 24L11.2396 35.6033C10.9201 35.9228 10.9201 36.4408 11.2396 36.7604C11.5592 37.0799 12.0772 37.0799 12.3967 36.7604L24 25.1571L35.6033 36.7604C35.9228 37.0799 36.4408 37.0799 36.7604 36.7604C37.0799 36.4408 37.0799 35.9228 36.7604 35.6033L25.1571 24L36.7604 12.3967Z" fill="white"/>
</svg>
