<svg width="48" height="48" viewBox="0 0 48 48" fill="none" xmlns="http://www.w3.org/2000/svg">
<path fill-rule="evenodd" clip-rule="evenodd" d="M43.4045 35.205V38.3867C43.4045 38.8349 43.2551 39.2083 42.9564 39.5071C42.6576 39.8058 42.2692 39.9701 41.7912 40H6.61326C6.16513 40 5.79169 39.8357 5.49294 39.5071C5.19419 39.1784 5.02988 38.805 5 38.3867V35.205C5 34.7569 5.16431 34.3835 5.49294 34.0847C5.82157 33.786 6.195 33.6217 6.61326 33.5918H41.7912C42.2394 33.5918 42.6277 33.7561 42.9564 34.0847C43.285 34.4134 43.4344 34.7868 43.4045 35.205ZM43.4045 22.3886V25.6151C43.4045 26.0334 43.2551 26.4068 42.9564 26.7354C42.6576 27.0641 42.2692 27.2134 41.7912 27.1836H6.61326C6.16513 27.1836 5.79169 27.0342 5.49294 26.7354C5.19419 26.4367 5.02988 26.0633 5 25.6151V22.3886C5 21.9704 5.16431 21.5969 5.49294 21.2683C5.82157 20.9397 6.195 20.7903 6.61326 20.8202H41.7912C42.2394 20.8202 42.6277 20.9695 42.9564 21.2683C43.285 21.567 43.4344 21.9405 43.4045 22.3886ZM43.4045 9.61699V12.7987C43.4045 13.2169 43.2551 13.5904 42.9564 13.919C42.6576 14.2476 42.2692 14.412 41.7912 14.412H6.61326C6.16513 14.412 5.79169 14.2476 5.49294 13.919C5.19419 13.5904 5.02988 13.2169 5 12.7987V9.61699C5 9.16886 5.16431 8.78049 5.49294 8.45186C5.82157 8.12323 6.195 7.97386 6.61326 8.00373H41.7912C42.2394 8.00373 42.6277 8.15311 42.9564 8.45186C43.285 8.75061 43.4344 9.13899 43.4045 9.61699Z" fill="white"/>
</svg>
