<svg width="19" height="19" viewBox="0 0 19 19" fill="none" xmlns="http://www.w3.org/2000/svg">
<g clip-path="url(#clip0_0_1312)">
<path d="M8 10.0104C8.32209 10.4409 8.73302 10.7972 9.20491 11.0551C9.67681 11.3129 10.1986 11.4662 10.735 11.5046C11.2713 11.543 11.8097 11.4656 12.3135 11.2777C12.8173 11.0897 13.2748 10.7957 13.655 10.4154L15.905 8.16535C16.5881 7.45809 16.9661 6.51083 16.9575 5.5276C16.949 4.54436 16.5546 3.60381 15.8593 2.90853C15.164 2.21325 14.2235 1.81887 13.2403 1.81032C12.257 1.80178 11.3098 2.17976 10.6025 2.86285L9.3125 4.14535" stroke="#003057" stroke-width="2" stroke-linecap="round" stroke-linejoin="round"/>
<path d="M11 8.51036C10.6779 8.07977 10.267 7.72347 9.79511 7.46566C9.32322 7.20784 8.8014 7.05452 8.26504 7.01611C7.72868 6.9777 7.19034 7.05509 6.68652 7.24303C6.1827 7.43096 5.72519 7.72506 5.34503 8.10536L3.09503 10.3554C2.41194 11.0626 2.03396 12.0099 2.0425 12.9931C2.05104 13.9764 2.44543 14.9169 3.14071 15.6122C3.83599 16.3075 4.77654 16.7018 5.75977 16.7104C6.74301 16.7189 7.69027 16.341 8.39753 15.6579L9.68003 14.3754" stroke="#003057" stroke-width="2" stroke-linecap="round" stroke-linejoin="round"/>
</g>
<defs>
<clipPath id="clip0_0_1312">
<rect width="18" height="18" fill="white" transform="translate(0.5 0.260376)"/>
</clipPath>
</defs>
</svg>
